<svg id="Layer_1" enable-background="new 0 0 512 512" height="512" viewBox="0 0 512 512" width="512" xmlns="http://www.w3.org/2000/svg"><g><path d="m486.644 3.327h-324.581c11.652 0 22.075 7.247 26.131 18.171l16.577 51.331c5.507 14.825 19.654 24.663 35.469 24.663h243.883c15.396 0 27.877 12.481 27.877 27.877v-96.686c0-13.946-11.41-25.356-25.356-25.356z" fill="#fec458"/><g><g><path d="m303.169 72.83-16.577-51.331c-4.056-10.923-14.479-18.171-26.131-18.171h-98.398c11.652 0 22.075 7.247 26.131 18.171l16.577 51.331c5.507 14.825 19.653 24.663 35.469 24.663h98.398c-15.815-.001-29.962-9.838-35.469-24.663z" fill="#f9ab49"/></g></g><path d="m484.123 90.801h-237.191c-15.816 0-29.962-9.837-35.469-24.663l-16.577-44.64c-4.056-10.923-14.479-18.171-26.131-18.171h-140.878c-15.396 0-27.877 12.481-27.877 27.877v353.849c0 15.395 12.48 27.876 27.876 27.876h456.248c15.396 0 27.877-12.481 27.877-27.877v-266.374c-.001-15.396-12.482-27.877-27.878-27.877z" fill="#ffe181"/><path d="m89.217 385.053v-353.849c0-15.396 12.481-27.877 27.877-27.877h-89.217c-15.396.001-27.877 12.481-27.877 27.877v353.849c0 15.395 12.481 27.876 27.876 27.876h89.217c-15.395-.001-27.876-12.481-27.876-27.876z" fill="#fec458"/><path d="m408.517 251.377h-305.034c-18.245 0-33.173 14.928-33.173 33.173v190.949c0 18.245 14.928 33.173 33.173 33.173h305.033c18.245 0 33.173-14.928 33.173-33.173v-190.949c.001-18.245-14.927-33.173-33.172-33.173z" fill="#9dc6fb"/><path d="m144.542 475.499v-190.949c0-18.245 14.928-33.173 33.173-33.173h-74.231c-18.245 0-33.173 14.928-33.173 33.173v190.949c0 18.245 14.928 33.173 33.173 33.173h74.231c-18.246.001-33.173-14.928-33.173-33.173z" fill="#80b4fb"/><g fill="#dfebfa"><path d="m151.425 426.75h53.893c5.944 0 9.312 7.133 9.312 13.472 0 6.341-3.368 13.474-9.312 13.474h-84.405c-6.34 0-8.916-3.368-8.916-8.123 0-3.17 1.189-7.133 3.368-10.897l55.874-98.869h-45.967c-5.944 0-9.312-6.341-9.312-13.474 0-6.539 2.774-13.474 9.312-13.474h76.48c5.944 0 8.916 3.368 8.916 8.123 0 3.17-1.189 6.935-3.368 10.898z"/><path d="m239.254 318.171c0-6.538 7.727-9.312 15.454-9.312 7.728 0 15.455 2.775 15.455 9.312v126.014c0 6.34-7.727 9.51-15.455 9.51-7.727 0-15.454-3.17-15.454-9.51z"/><path d="m353.777 308.859h-41.014c-6.935 0-11.491 4.359-11.491 9.312v126.014c0 6.34 7.727 9.51 15.454 9.51 7.728 0 15.455-3.17 15.455-9.51v-37.942h19.615c27.343 0 48.741-17.535 48.741-50.822v-.991c0-33.286-20.606-45.571-46.76-45.571zm15.851 48.94c0 13.472-6.737 19.813-17.832 19.813h-19.616v-41.806h19.615c11.095 0 17.832 6.34 17.832 19.813v2.18z"/></g></g></svg>